<svg xmlns="http://www.w3.org/2000/svg" xmlns:xlink="http://www.w3.org/1999/xlink" width="250" zoomAndPan="magnify" viewBox="0 0 187.5 44.999999" height="60" preserveAspectRatio="xMidYMid meet" version="1.2"><defs><clipPath id="519fd75262"><path d="M 0.152344 1 L 27 1 L 27 25 L 0.152344 25 Z M 0.152344 1 "/></clipPath><clipPath id="0ab0b2f284"><rect x="0" width="137" y="0" height="36"/></clipPath><clipPath id="e6a0fb6c28"><path d="M 15.699219 6.058594 L 45.175781 6.058594 L 45.175781 40.429688 L 15.699219 40.429688 Z M 15.699219 6.058594 "/></clipPath><clipPath id="734c6a762c"><path d="M 7.179688 2.304688 L 35 2.304688 L 35 35 L 7.179688 35 Z M 7.179688 2.304688 "/></clipPath></defs><g id="c4dfd62be4"><g transform="matrix(1,0,0,1,47,6)"><g clip-path="url(#0ab0b2f284)"><g clip-rule="nonzero" clip-path="url(#519fd75262)"><g style="fill:#3b3d57;fill-opacity:1;"><g transform="translate(0.439125, 24.974073)"><path style="stroke:none" d="M 20.6875 0 L 19.59375 -13.625 L 19.453125 -13.625 L 14.75 -0.140625 L 11.625 -0.140625 L 6.90625 -13.625 L 6.78125 -13.625 L 5.6875 0 L 0.453125 0 L 2.515625 -23 L 8.078125 -23 L 13.1875 -9.734375 L 18.28125 -23 L 23.859375 -23 L 25.921875 0 Z M 20.6875 0 "/></g></g></g><g style="fill:#3b3d57;fill-opacity:1;"><g transform="translate(26.806411, 24.974073)"><path style="stroke:none" d="M 16.140625 -6.46875 L 5.765625 -6.46875 C 5.765625 -5.46875 6.085938 -4.722656 6.734375 -4.234375 C 7.390625 -3.753906 8.097656 -3.515625 8.859375 -3.515625 C 9.660156 -3.515625 10.289062 -3.617188 10.75 -3.828125 C 11.21875 -4.046875 11.75 -4.46875 12.34375 -5.09375 L 15.921875 -3.3125 C 14.429688 -0.820312 11.957031 0.421875 8.5 0.421875 C 6.34375 0.421875 4.492188 -0.316406 2.953125 -1.796875 C 1.410156 -3.273438 0.640625 -5.054688 0.640625 -7.140625 C 0.640625 -9.222656 1.410156 -11.003906 2.953125 -12.484375 C 4.492188 -13.972656 6.34375 -14.71875 8.5 -14.71875 C 10.769531 -14.71875 12.613281 -14.0625 14.03125 -12.75 C 15.457031 -11.4375 16.171875 -9.566406 16.171875 -7.140625 C 16.171875 -6.804688 16.160156 -6.582031 16.140625 -6.46875 Z M 5.90625 -9.203125 L 11.34375 -9.203125 C 11.226562 -9.941406 10.929688 -10.507812 10.453125 -10.90625 C 9.984375 -11.3125 9.378906 -11.515625 8.640625 -11.515625 C 7.828125 -11.515625 7.175781 -11.300781 6.6875 -10.875 C 6.207031 -10.445312 5.945312 -9.890625 5.90625 -9.203125 Z M 5.90625 -9.203125 "/></g></g><g style="fill:#3b3d57;fill-opacity:1;"><g transform="translate(43.613467, 24.974073)"><path style="stroke:none" d="M 2.640625 -1.765625 C 1.304688 -3.222656 0.640625 -5.007812 0.640625 -7.125 C 0.640625 -9.25 1.304688 -11.046875 2.640625 -12.515625 C 3.984375 -13.984375 5.6875 -14.71875 7.75 -14.71875 C 9.644531 -14.71875 11.207031 -14.125 12.4375 -12.9375 L 12.4375 -23.96875 L 17.359375 -23.96875 L 17.359375 0 L 12.484375 0 L 12.484375 -1.609375 L 12.4375 -1.609375 C 11.207031 -0.253906 9.644531 0.421875 7.75 0.421875 C 5.6875 0.421875 3.984375 -0.304688 2.640625 -1.765625 Z M 6.84375 -9.5625 C 6.195312 -8.925781 5.875 -8.113281 5.875 -7.125 C 5.875 -6.144531 6.179688 -5.34375 6.796875 -4.71875 C 7.410156 -4.101562 8.222656 -3.796875 9.234375 -3.796875 C 10.191406 -3.796875 10.984375 -4.109375 11.609375 -4.734375 C 12.234375 -5.367188 12.546875 -6.171875 12.546875 -7.140625 C 12.546875 -8.117188 12.222656 -8.925781 11.578125 -9.5625 C 10.941406 -10.195312 10.160156 -10.515625 9.234375 -10.515625 C 8.285156 -10.515625 7.488281 -10.195312 6.84375 -9.5625 Z M 6.84375 -9.5625 "/></g></g><g style="fill:#3b3d57;fill-opacity:1;"><g transform="translate(62.650312, 24.974073)"><path style="stroke:none" d="M 2.140625 -22.265625 C 2.722656 -22.847656 3.410156 -23.140625 4.203125 -23.140625 C 5.003906 -23.140625 5.691406 -22.847656 6.265625 -22.265625 C 6.847656 -21.691406 7.140625 -21.003906 7.140625 -20.203125 C 7.140625 -19.410156 6.847656 -18.722656 6.265625 -18.140625 C 5.691406 -17.566406 5.003906 -17.28125 4.203125 -17.28125 C 3.410156 -17.28125 2.722656 -17.566406 2.140625 -18.140625 C 1.566406 -18.722656 1.28125 -19.410156 1.28125 -20.203125 C 1.28125 -21.003906 1.566406 -21.691406 2.140625 -22.265625 Z M 1.671875 -14.296875 L 1.671875 0 L 6.609375 0 L 6.609375 -14.296875 Z M 1.671875 -14.296875 "/></g></g><g style="fill:#3b3d57;fill-opacity:1;"><g transform="translate(71.067775, 24.974073)"><path style="stroke:none" d="M 6.90625 -9.234375 L 6.90625 0 L 1.671875 0 L 1.671875 -23 L 6.90625 -23 L 6.90625 -13.828125 L 14.328125 -13.828125 L 14.328125 -23 L 19.5625 -23 L 19.5625 0 L 14.328125 0 L 14.328125 -9.234375 Z M 6.90625 -9.234375 "/></g></g><g style="fill:#3b3d57;fill-opacity:1;"><g transform="translate(92.30654, 24.974073)"><path style="stroke:none" d="M 16.140625 -6.46875 L 5.765625 -6.46875 C 5.765625 -5.46875 6.085938 -4.722656 6.734375 -4.234375 C 7.390625 -3.753906 8.097656 -3.515625 8.859375 -3.515625 C 9.660156 -3.515625 10.289062 -3.617188 10.75 -3.828125 C 11.21875 -4.046875 11.75 -4.46875 12.34375 -5.09375 L 15.921875 -3.3125 C 14.429688 -0.820312 11.957031 0.421875 8.5 0.421875 C 6.34375 0.421875 4.492188 -0.316406 2.953125 -1.796875 C 1.410156 -3.273438 0.640625 -5.054688 0.640625 -7.140625 C 0.640625 -9.222656 1.410156 -11.003906 2.953125 -12.484375 C 4.492188 -13.972656 6.34375 -14.71875 8.5 -14.71875 C 10.769531 -14.71875 12.613281 -14.0625 14.03125 -12.75 C 15.457031 -11.4375 16.171875 -9.566406 16.171875 -7.140625 C 16.171875 -6.804688 16.160156 -6.582031 16.140625 -6.46875 Z M 5.90625 -9.203125 L 11.34375 -9.203125 C 11.226562 -9.941406 10.929688 -10.507812 10.453125 -10.90625 C 9.984375 -11.3125 9.378906 -11.515625 8.640625 -11.515625 C 7.828125 -11.515625 7.175781 -11.300781 6.6875 -10.875 C 6.207031 -10.445312 5.945312 -9.890625 5.90625 -9.203125 Z M 5.90625 -9.203125 "/></g></g><g style="fill:#3b3d57;fill-opacity:1;"><g transform="translate(109.113589, 24.974073)"><path style="stroke:none" d="M 1.671875 0 L 1.671875 -23.96875 L 6.609375 -23.96875 L 6.609375 0 Z M 1.671875 0 "/></g></g><g style="fill:#3b3d57;fill-opacity:1;"><g transform="translate(117.391689, 24.974073)"><path style="stroke:none" d="M 16.390625 -12.53125 C 17.722656 -11.070312 18.390625 -9.28125 18.390625 -7.15625 C 18.390625 -5.039062 17.722656 -3.25 16.390625 -1.78125 C 15.054688 -0.3125 13.359375 0.421875 11.296875 0.421875 C 9.398438 0.421875 7.835938 -0.171875 6.609375 -1.359375 L 6.609375 7.25 L 1.671875 7.25 L 1.671875 -14.296875 L 6.546875 -14.296875 L 6.546875 -12.6875 L 6.609375 -12.6875 C 7.835938 -14.039062 9.398438 -14.71875 11.296875 -14.71875 C 13.359375 -14.71875 15.054688 -13.988281 16.390625 -12.53125 Z M 12.1875 -4.734375 C 12.832031 -5.367188 13.15625 -6.175781 13.15625 -7.15625 C 13.15625 -8.144531 12.847656 -8.953125 12.234375 -9.578125 C 11.617188 -10.203125 10.8125 -10.515625 9.8125 -10.515625 C 8.84375 -10.515625 8.046875 -10.195312 7.421875 -9.5625 C 6.804688 -8.925781 6.5 -8.125 6.5 -7.15625 C 6.5 -6.175781 6.816406 -5.367188 7.453125 -4.734375 C 8.097656 -4.109375 8.882812 -3.796875 9.8125 -3.796875 C 10.757812 -3.796875 11.550781 -4.109375 12.1875 -4.734375 Z M 12.1875 -4.734375 "/></g></g></g></g><path style=" stroke:none;fill-rule:nonzero;fill:#162090;fill-opacity:1;" d="M 18.332031 37.269531 L 18.332031 34.179688 C 21.117188 30.941406 21.480469 27.644531 20.648438 24.113281 C 19.53125 19.335938 15.488281 16.253906 13.898438 15.203125 C 15.601562 15.929688 20.207031 18.25 22.175781 22.808594 C 24.132812 27.34375 23.84375 31.835938 18.332031 37.269531 "/><g clip-rule="nonzero" clip-path="url(#e6a0fb6c28)"><path style=" stroke:none;fill-rule:nonzero;fill:#6370f8;fill-opacity:1;" d="M 37.332031 13.480469 C 35.175781 16.832031 34.023438 20.746094 34.023438 20.746094 C 34.507812 16.949219 36.121094 13.480469 36.121094 13.480469 C 38.011719 8.761719 40.5 6.085938 40.5 6.085938 C 40.496094 6.089844 40.496094 6.089844 40.492188 6.09375 C 40.242188 6.261719 35.265625 8.164062 30.878906 23.714844 C 27.066406 37.25 15.71875 39.554688 15.71875 39.554688 C 15.71875 39.554688 16.808594 39.511719 18.332031 39.175781 L 18.332031 40.429688 L 27.773438 40.429688 C 31.226562 40.429688 34.023438 37.632812 34.023438 34.179688 L 34.023438 29.167969 L 45.175781 29.167969 L 45.175781 19.726562 C 45.175781 16.277344 42.378906 13.480469 38.925781 13.480469 L 37.332031 13.480469 "/></g><g clip-rule="nonzero" clip-path="url(#734c6a762c)"><path style=" stroke:none;fill-rule:nonzero;fill:#6370f8;fill-opacity:1;" d="M 28.378906 16.871094 C 28.332031 17.253906 28.226562 17.613281 28.066406 17.933594 C 27.753906 18.566406 27.234375 19.039062 26.578125 19.21875 C 25.175781 19.59375 23.664062 18.496094 23.203125 16.769531 C 23.179688 16.683594 23.160156 16.601562 23.140625 16.515625 C 23.007812 15.851562 23.050781 15.203125 23.238281 14.640625 C 23.375 13.5 24.046875 12.558594 25.042969 12.292969 C 26.441406 11.917969 27.953125 13.011719 28.417969 14.742188 C 28.617188 15.488281 28.589844 16.234375 28.378906 16.871094 Z M 24.582031 2.328125 C 21.128906 2.328125 18.332031 5.125 18.332031 8.574219 L 18.332031 13.480469 L 7.179688 13.480469 L 7.179688 22.921875 C 7.179688 25.324219 8.535156 27.40625 10.523438 28.453125 C 11.390625 28.910156 12.378906 29.167969 13.429688 29.167969 L 18.332031 29.167969 L 18.332031 34.179688 C 21.117188 30.941406 21.480469 27.644531 20.648438 24.113281 C 19.53125 19.335938 15.488281 16.253906 13.898438 15.203125 C 13.488281 15.027344 13.246094 14.945312 13.246094 14.945312 C 13.355469 14.957031 13.460938 14.972656 13.5625 14.988281 C 13.71875 15.007812 13.875 15.03125 14.027344 15.058594 C 18.203125 15.738281 21.320312 17.539062 23.4375 19.234375 C 24.03125 19.710938 24.546875 20.179688 24.988281 20.613281 C 26.023438 21.632812 26.625 22.460938 26.808594 22.730469 C 26.851562 22.789062 26.875 22.824219 26.875 22.824219 C 26.933594 22.683594 26.992188 22.542969 27.050781 22.40625 C 29.175781 17.5 31.71875 13.925781 34.023438 11.394531 L 34.023438 2.328125 L 24.582031 2.328125 "/></g><path style=" stroke:none;fill-rule:nonzero;fill:#162090;fill-opacity:1;" d="M 28.378906 16.871094 C 28.332031 17.253906 28.226562 17.613281 28.066406 17.933594 C 27.753906 18.566406 27.234375 19.039062 26.578125 19.21875 C 25.175781 19.59375 23.664062 18.496094 23.203125 16.769531 C 23.179688 16.683594 23.160156 16.601562 23.140625 16.515625 C 23.007812 15.851562 23.050781 15.203125 23.238281 14.640625 C 23.191406 15.027344 23.207031 15.433594 23.289062 15.847656 C 23.308594 15.933594 23.328125 16.019531 23.351562 16.101562 C 23.8125 17.832031 25.324219 18.925781 26.722656 18.550781 C 27.382812 18.371094 27.902344 17.898438 28.214844 17.265625 C 28.277344 17.140625 28.332031 17.007812 28.378906 16.871094 "/></g></svg>